<?xml version="1.0" standalone="no"?><!DOCTYPE svg PUBLIC "-//W3C//DTD SVG 1.1//EN" "http://www.w3.org/Graphics/SVG/1.1/DTD/svg11.dtd"><svg t="1729157479536" class="icon" viewBox="0 0 1024 1024" version="1.1" xmlns="http://www.w3.org/2000/svg" p-id="13614" width="32" height="32" xmlns:xlink="http://www.w3.org/1999/xlink"><path d="M511.996485 0c282.749416 0 512 229.247069 512 512 0 282.784567-229.247069 511.996485-512 511.996485S0 794.781052 0 512C0 229.247069 229.215433 0 511.996485 0z" fill="#F4B459" p-id="13615"></path><path d="M384.031635 575.871701c-35.361252 0-64.065028 28.672141-64.065028 64.065028s28.672141 64.065028 64.065028 64.065029 64.065028-28.672141 64.065028-64.065029-28.675656-64.065028-64.065028-64.065028z m-18.914403-159.807552c-24.865358 0-44.992448 20.12709-44.992448 44.992449 0 24.830207 20.12709 44.992448 44.992448 44.992448 84.350295 0 152.991899 68.638089 152.991899 152.991899 0 24.830207 20.12709 44.992448 45.024083 44.992448 24.798572 0 44.992448-20.158726 44.992449-44.992448 0-133.986105-109.022326-242.976795-243.008431-242.976796z m0.864699-160.032514c-25.406673 0-46.015323 20.60865-46.015324 46.015324s20.60865 46.015323 46.015324 46.015323c170.911547 0 309.983908 139.040725 309.983907 309.952272 0 25.406673 20.577015 46.015323 46.015324 46.015324s46.015323-20.640286 46.015323-46.015324c-0.031635-221.665138-180.381052-401.982919-402.014554-401.982919z" fill="#FFFFFF" p-id="13616"></path></svg>